
<svg width="538" height="120" viewBox="0 0 538 120" fill="none" xmlns="http://www.w3.org/2000/svg">
<path fill-rule="evenodd" clip-rule="evenodd" d="M59.7444 1.80543C59.8363 1.48587 59.9234 1.25263 60.0014 1.09466C60.0795 1.25263 60.1666 1.48587 60.2585 1.80543C60.4771 2.56604 60.6934 3.70942 60.9021 5.20965C60.9892 5.83623 61.0746 6.52195 61.1581 7.26395C60.7879 7.09534 60.4017 7.00389 60.0007 7.00389C59.6002 7.00389 59.2146 7.09508 58.8449 7.26321C58.9283 6.52149 59.0137 5.83602 59.1008 5.20965C59.3094 3.70942 59.5258 2.56604 59.7444 1.80543ZM57.8317 7.94148C57.9428 6.88712 58.0576 5.93123 58.1759 5.08101C58.3862 3.5687 58.6096 2.37288 58.8469 1.54743C58.9645 1.13827 59.093 0.792836 59.2393 0.540257C59.3125 0.414016 59.4025 0.288829 59.5164 0.190677C59.6334 0.0898493 59.7976 0 60.0014 0C60.2053 0 60.3695 0.0898494 60.4865 0.190677C60.6004 0.288829 60.6904 0.414016 60.7635 0.540258C60.9098 0.792836 61.0383 1.13827 61.156 1.54743C61.3932 2.37288 61.6167 3.5687 61.827 5.08101C61.9453 5.93164 62.0602 6.88804 62.1713 7.943C62.2662 8.02768 62.3597 8.11734 62.4519 8.21166C63.1863 8.9631 63.8724 10.0463 64.5121 11.3992C65.2394 12.9373 65.9216 14.8562 66.5501 17.1007C66.756 17.3042 66.9597 17.5169 67.1609 17.7382C68.9935 19.7535 70.655 22.5187 72.095 25.866C74.1779 27.6654 76.0726 29.9111 77.7268 32.5106C78.033 32.9918 78.3312 33.4853 78.621 33.9908C81.4677 36.0322 83.9653 38.5294 86.0073 41.3757C86.5142 41.6663 87.0092 41.9653 87.4918 42.2723C90.0916 43.9267 92.3374 45.8216 94.1369 47.9048C97.4843 49.3448 100.25 51.0063 102.265 52.8389C102.487 53.0411 102.701 53.2456 102.905 53.4524C105.147 54.0804 107.063 54.762 108.6 55.4886C109.953 56.1283 111.036 56.8144 111.788 57.5488C111.882 57.6412 111.972 57.735 112.057 57.8301C113.112 57.9412 114.068 58.0561 114.919 58.1744C116.431 58.3847 117.627 58.6082 118.453 58.8455C118.862 58.9631 119.207 59.0916 119.46 59.2379C119.586 59.311 119.711 59.4011 119.809 59.515C119.91 59.632 120 59.7961 120 60C120 60.2039 119.91 60.368 119.809 60.485C119.711 60.5989 119.586 60.689 119.46 60.7621C119.207 60.9084 118.862 61.0369 118.453 61.1545C117.627 61.3918 116.431 61.6153 114.919 61.8256C114.068 61.9439 113.112 62.0588 112.057 62.1698C111.972 62.265 111.882 62.3588 111.788 62.4512C111.036 63.1857 109.953 63.8718 108.6 64.5115C107.063 65.2381 105.147 65.9197 102.905 66.5476C102.701 66.7544 102.487 66.9589 102.265 67.161C100.25 68.9936 97.4844 70.6551 94.137 72.0951C92.3375 74.1783 90.0916 76.0733 87.4918 77.7277C87.0092 78.0348 86.5142 78.3338 86.0072 78.6244C83.9653 81.4706 81.4676 83.9677 78.6211 86.0091C78.3312 86.5146 78.033 87.0082 77.7268 87.4894C76.0726 90.0889 74.1779 92.3346 72.095 94.134C70.655 97.4813 68.9935 100.247 67.1609 102.262C66.9597 102.483 66.756 102.696 66.5501 102.899C65.9216 105.144 65.2394 107.063 64.5121 108.601C63.8724 109.954 63.1863 111.037 62.4519 111.788C62.3597 111.883 62.2662 111.972 62.1713 112.057C62.0602 113.112 61.9453 114.068 61.827 114.919C61.6167 116.431 61.3932 117.627 61.156 118.453C61.0383 118.862 60.9098 119.207 60.7635 119.46C60.6904 119.586 60.6004 119.711 60.4865 119.809C60.3694 119.91 60.2053 120 60.0014 120C59.7976 120 59.6334 119.91 59.5164 119.809C59.4025 119.711 59.3125 119.586 59.2393 119.46C59.093 119.207 58.9645 118.862 58.8469 118.453C58.6096 117.627 58.3862 116.431 58.1758 114.919C58.0576 114.069 57.9428 113.113 57.8317 112.059C57.7363 111.973 57.6422 111.883 57.5494 111.788C56.815 111.037 56.1289 109.954 55.4892 108.601C54.7622 107.063 54.0801 105.145 53.4518 102.901C53.2452 102.697 53.0408 102.484 52.8389 102.262C51.0067 100.247 49.3455 97.4825 47.9058 94.1361C45.8218 92.3363 43.9263 90.0899 42.2715 87.4894C41.964 87.0063 41.6647 86.5107 41.3738 86.0031C38.5302 83.9624 36.0351 81.4669 33.995 78.6229C33.4889 78.3328 32.9947 78.0343 32.513 77.7277C29.9127 76.073 27.6665 74.1777 25.8669 72.094C22.5206 70.6543 19.7562 68.9932 17.7413 67.161C17.5202 66.9599 17.3078 66.7564 17.1043 66.5507C14.8579 65.9219 12.9375 65.2392 11.3985 64.5115C10.0455 63.8718 8.96233 63.1857 8.21089 62.4512C8.11624 62.3587 8.02629 62.2649 7.94135 62.1697C6.88704 62.0586 5.9312 61.9438 5.08101 61.8256C3.5687 61.6153 2.37288 61.3918 1.54743 61.1545C1.13827 61.0369 0.792836 60.9084 0.540258 60.7621C0.414016 60.689 0.288829 60.5989 0.190677 60.485C0.0898495 60.368 0 60.2039 0 60C0 59.7961 0.0898495 59.632 0.190677 59.515C0.288829 59.4011 0.414016 59.311 0.540258 59.2379C0.792836 59.0916 1.13827 58.9631 1.54743 58.8455C2.37288 58.6082 3.5687 58.3847 5.08101 58.1744C5.93122 58.0562 6.88708 57.9413 7.94142 57.8303C8.02634 57.7351 8.11627 57.6413 8.21089 57.5488C8.96233 56.8144 10.0455 56.1283 11.3985 55.4886C12.9375 54.7608 14.8579 54.0782 17.1042 53.4494C17.3077 53.2436 17.5201 53.0401 17.7413 52.8389C19.7562 51.0068 22.5206 49.3456 25.8669 47.9059C27.6666 45.8223 29.9128 43.927 32.513 42.2723C32.9947 41.9658 33.4888 41.6673 33.9949 41.3772C36.035 38.5331 38.5302 36.0375 41.3738 33.9968C41.6647 33.4893 41.964 32.9937 42.2715 32.5106C43.9263 29.9101 45.8218 27.6637 47.9058 25.8639C49.3455 22.5175 51.0067 19.7531 52.8389 17.7382C53.0408 17.5161 53.2452 17.3028 53.4518 17.0986C54.0801 14.855 54.7622 12.9368 55.4892 11.3992C56.1289 10.0463 56.815 8.9631 57.5495 8.21166C57.6422 8.11677 57.7363 8.02661 57.8317 7.94148ZM58.8449 112.737C58.9283 113.479 59.0137 114.164 59.1008 114.79C59.3094 116.291 59.5258 117.434 59.7444 118.195C59.8363 118.514 59.9234 118.747 60.0014 118.905C60.0795 118.747 60.1666 118.514 60.2584 118.195C60.4771 117.434 60.6934 116.291 60.9021 114.79C60.9892 114.164 61.0746 113.478 61.1581 112.736C60.7878 112.905 60.4017 112.996 60.0007 112.996C59.6002 112.996 59.2146 112.905 58.8449 112.737ZM61.2819 111.58C60.8342 111.913 60.4068 112.062 60.0007 112.062C59.595 112.062 59.1682 111.913 58.7211 111.581C58.5478 109.885 58.3837 107.942 58.2305 105.778C58.8102 105.919 59.4004 105.992 59.9999 105.992C60.6005 105.992 61.1917 105.919 61.7724 105.777C61.6192 107.941 61.4552 109.884 61.2819 111.58ZM62.3258 110.5C62.7775 109.901 63.2268 109.134 63.6679 108.202C64.215 107.045 64.7403 105.652 65.2383 104.048C64.4308 104.666 63.5932 105.148 62.7295 105.477C62.6025 107.306 62.4677 108.986 62.3258 110.5ZM62.7998 104.438C63.7946 103.993 64.7701 103.312 65.7178 102.406C66.1285 100.915 66.5177 99.273 66.8819 97.4952C65.6686 98.0352 64.4158 98.4366 63.1308 98.6863C63.0711 99.8733 63.0087 101.02 62.9438 102.124C62.8971 102.917 62.8491 103.689 62.7998 104.438ZM63.1782 97.7232C64.5243 97.4406 65.8375 96.9808 67.1079 96.3578C67.4335 94.6684 67.7367 92.8692 68.015 90.9723C66.5258 91.3565 64.9946 91.6361 63.4296 91.8029C63.3529 93.8653 63.2689 95.8421 63.1782 97.7232ZM62.4919 91.8889C62.4136 93.9823 62.3278 95.9868 62.2351 97.8913C61.4982 97.9993 60.7523 98.0545 59.9991 98.0545C59.2475 98.0545 58.5032 97.9996 57.7678 97.892C57.6751 95.9872 57.5893 93.9826 57.511 91.8889C58.3329 91.9522 59.1635 91.9844 60.0016 91.9844C60.8396 91.9844 61.6701 91.9522 62.4919 91.8889ZM63.464 90.8597C65.069 90.6816 66.6371 90.3812 68.1588 89.968C68.4097 88.1706 68.6387 86.2903 68.8439 84.3369C67.1521 84.5877 65.4185 84.768 63.6511 84.8728C63.5953 86.9345 63.5328 88.9328 63.464 90.8597ZM62.7156 84.9211C62.6592 86.9981 62.5959 89.0103 62.5263 90.9494C61.6936 91.0164 60.8516 91.0506 60.0016 91.0506C59.1515 91.0506 58.3094 91.0164 57.4765 90.9494C57.4069 89.0103 57.3437 86.9981 57.2873 84.9211C58.1844 84.9605 59.0898 84.9806 60.0024 84.9806C60.9143 84.9806 61.8191 84.9605 62.7156 84.9211ZM63.6759 83.9358C65.471 83.8269 67.2293 83.639 68.9421 83.3779C69.1282 81.5135 69.2927 79.5854 69.4341 77.602C67.5967 77.7502 65.7193 77.856 63.809 77.9165C63.7709 79.9733 63.7264 81.982 63.6759 83.9358ZM62.8745 77.9425C62.8362 80.0078 62.7913 82.0244 62.7405 83.9853C61.8363 84.026 60.9232 84.0467 60.0024 84.0467C59.0809 84.0467 58.1672 84.026 57.2624 83.9852C57.2115 82.0243 57.1667 80.0077 57.1283 77.9424C58.0792 77.9651 59.0377 77.9766 60.0032 77.9766C60.9674 77.9766 61.9248 77.9651 62.8745 77.9425ZM63.8258 76.9817C65.7543 76.9198 67.6479 76.8115 69.4992 76.6598C69.6271 74.7501 69.7336 72.7911 69.8173 70.7899C67.8837 70.8629 65.9129 70.9147 63.9113 70.9441C63.8889 72.9954 63.8603 75.0099 63.8258 76.9817ZM62.9773 70.9562C62.9547 73.0127 62.926 75.0319 62.8914 77.008C61.9365 77.0311 60.9734 77.0428 60.0032 77.0428C59.0317 77.0428 58.0675 77.031 57.1115 77.0079C57.0769 75.0318 57.0481 73.0127 57.0256 70.9563C58.0099 70.9672 59.0014 70.9728 59.9992 70.9728C60.9986 70.9728 61.9915 70.9672 62.9773 70.9562ZM63.921 70.01C65.9329 69.9803 67.9129 69.9278 69.8547 69.854C69.9285 67.9119 69.981 65.9317 70.0107 63.9196C68.0263 63.9393 66.0086 63.9533 63.9627 63.9612C63.9548 66.0074 63.9408 68.0254 63.921 70.01ZM63.0288 63.9644C63.0209 66.0138 63.0069 68.0348 62.987 70.0222C61.9982 70.0333 61.002 70.0389 59.9992 70.0389C58.9979 70.0389 58.0032 70.0333 57.0159 70.0222C56.996 68.0348 56.982 66.0138 56.9741 63.9644C57.9764 63.9674 58.9852 63.9689 60 63.9689C61.0157 63.9689 62.0255 63.9674 63.0288 63.9644ZM63.9659 63.0274C66.015 63.0194 68.0357 63.0054 70.0229 62.9856C70.034 61.9975 70.0396 61.0021 70.0396 60C70.0396 58.9979 70.034 58.0025 70.0229 57.0144C68.0357 56.9946 66.015 56.9806 63.9659 56.9726C63.9688 57.9754 63.9703 58.9848 63.9703 60C63.9703 61.0152 63.9688 62.0246 63.9659 63.0274ZM63.032 56.9694C63.035 57.9733 63.0365 58.9836 63.0365 60C63.0365 61.0163 63.035 62.0267 63.032 63.0305C62.0277 63.0335 61.0168 63.035 60 63.035C58.9841 63.035 57.9742 63.0335 56.9709 63.0306C56.9679 62.0267 56.9664 61.0163 56.9664 60C56.9664 58.9836 56.9679 57.9732 56.9709 56.9694C57.9742 56.9665 58.9841 56.965 60 56.965C61.0168 56.965 62.0277 56.9665 63.032 56.9694ZM63.9627 56.0387C66.0086 56.0467 68.0263 56.0606 70.0107 56.0804C69.981 54.0683 69.9285 52.0881 69.8547 50.1461C67.9129 50.0722 65.9329 50.0198 63.921 49.99C63.9408 51.9747 63.9548 53.9926 63.9627 56.0387ZM62.987 49.9779C63.0069 51.9652 63.0209 53.9862 63.0288 56.0356C62.0255 56.0326 61.0157 56.0311 60 56.0311C58.9852 56.0311 57.9764 56.0326 56.9741 56.0356C56.982 53.9862 56.996 51.9652 57.0159 49.9778C58.0032 49.9667 58.9979 49.9611 59.9992 49.9611C61.002 49.9611 61.9982 49.9667 62.987 49.9779ZM63.9113 49.0559C65.9129 49.0853 67.8837 49.1371 69.8173 49.2101C69.7336 47.2089 69.6271 45.2499 69.4992 43.3402C67.6479 43.1885 65.7543 43.0802 63.8258 43.0183C63.8603 44.9901 63.8889 47.0046 63.9113 49.0559ZM62.8914 42.992C62.926 44.9681 62.9547 46.9873 62.9773 49.0438C61.9915 49.0328 60.9986 49.0273 59.9992 49.0273C59.0014 49.0273 58.0099 49.0328 57.0256 49.0438C57.0481 46.9873 57.0769 44.9681 57.1115 42.9921C58.0675 42.9689 59.0317 42.9572 60.0032 42.9572C60.9734 42.9572 61.9365 42.9689 62.8914 42.992ZM63.809 42.0834C65.7193 42.144 67.5967 42.2497 69.4341 42.398C69.2927 40.4146 69.1282 38.4866 68.9421 36.6222C67.2293 36.361 65.471 36.1731 63.6759 36.0642C63.7264 38.018 63.7709 40.0267 63.809 42.0834ZM62.7405 36.0148C62.7913 37.9757 62.8362 39.9922 62.8745 42.0575C61.9248 42.0348 60.9674 42.0233 60.0032 42.0233C59.0377 42.0233 58.0792 42.0348 57.1283 42.0575C57.1667 39.9923 57.2115 37.9757 57.2624 36.0148C58.1672 35.9741 59.0809 35.9533 60.0024 35.9533C60.9232 35.9533 61.8363 35.974 62.7405 36.0148ZM63.6511 35.1272C65.4185 35.2321 67.1521 35.4123 68.8439 35.6631C68.6387 33.7097 68.4097 31.8294 68.1588 30.032C66.6371 29.6187 65.069 29.3183 63.464 29.1403C63.5328 31.0671 63.5953 33.0655 63.6511 35.1272ZM62.5263 29.0506C62.5959 30.9896 62.6592 33.0019 62.7156 35.0789C61.8191 35.0395 60.9143 35.0195 60.0024 35.0195C59.0898 35.0195 58.1844 35.0395 57.2873 35.079C57.3437 33.0019 57.4069 30.9897 57.4766 29.0506C58.3094 28.9836 59.1515 28.9494 60.0016 28.9494C60.8516 28.9494 61.6936 28.9835 62.5263 29.0506ZM63.4296 28.1971C64.9946 28.3638 66.5258 28.6435 68.015 29.0276C67.7367 27.1307 67.4335 25.3316 67.1079 23.6423C65.8375 23.0192 64.5243 22.5594 63.1782 22.2768C63.2689 24.1578 63.3529 26.1347 63.4296 28.1971ZM62.2351 22.1087C62.3278 24.0132 62.4136 26.0176 62.4919 28.1111C61.6701 28.0478 60.8396 28.0155 60.0016 28.0155C59.1635 28.0155 58.3329 28.0478 57.511 28.1111C57.5893 26.0174 57.6751 24.0128 57.7678 22.1081C58.5032 22.0004 59.2475 21.9455 59.9991 21.9455C60.7523 21.9455 61.4982 22.0007 62.2351 22.1087ZM63.1308 21.3137C64.4158 21.5635 65.6686 21.9648 66.8819 22.5048C66.5177 20.727 66.1285 19.0852 65.7178 17.5938C64.7701 16.688 63.7946 16.0073 62.7998 15.5625C62.8491 16.311 62.8971 17.0827 62.9438 17.8763C63.0087 18.98 63.0711 20.1267 63.1308 21.3137ZM61.8404 15.2085C61.8992 16.0833 61.9563 16.9914 62.0116 17.9312C62.0726 18.9695 62.1315 20.046 62.1879 21.1585C61.4673 21.0614 60.7373 21.0117 59.9991 21.0117C59.2626 21.0117 58.5341 21.0611 57.815 21.1579C57.8714 20.0456 57.9302 18.9693 57.9913 17.9312C58.0466 16.9911 58.1037 16.0827 58.1626 15.2076C58.7697 15.0311 59.3828 14.9416 59.9999 14.9416C60.6181 14.9416 61.2322 15.0314 61.8404 15.2085ZM62.7295 14.5226C63.5932 14.8521 64.4308 15.3341 65.2383 15.9523C64.7403 14.3476 64.215 12.9554 63.6679 11.7984C63.2268 10.8656 62.7775 10.0986 62.3258 9.50021C62.4677 11.0139 62.6025 12.6936 62.7295 14.5226ZM61.282 8.4204C61.4552 10.116 61.6192 12.0595 61.7724 14.2232C61.1918 14.0812 60.6005 14.0078 59.9999 14.0078C59.4004 14.0078 58.8102 14.0809 58.2305 14.2225C58.3837 12.0585 58.5478 10.1149 58.7211 8.41916C59.1682 8.08673 59.595 7.93775 60.0007 7.93775C60.4068 7.93775 60.8342 8.08711 61.282 8.4204ZM57.2734 14.5214C57.4005 12.6919 57.5354 11.0119 57.6773 9.49788C57.225 10.0966 56.7751 10.8644 56.3334 11.7984C55.7865 12.955 55.2613 14.3467 54.7635 15.9508C55.5714 15.3326 56.4094 14.8506 57.2734 14.5214ZM57.2031 15.5611C56.208 16.0056 55.2321 16.686 54.2841 17.5918C53.8733 19.0833 53.484 20.7253 53.1198 22.5033C54.3335 21.9634 55.5867 21.5623 56.8721 21.3128C56.9318 20.1261 56.9942 18.9797 57.0591 17.8763C57.1058 17.0822 57.1538 16.31 57.2031 15.5611ZM56.8247 22.2758C55.4782 22.5581 54.1645 23.0177 52.8938 23.6406C52.568 25.3306 52.2647 27.1304 51.9863 29.0282C53.476 28.6437 55.0077 28.364 56.5733 28.1971C56.65 26.1344 56.7341 24.1572 56.8247 22.2758ZM56.5389 29.1403C54.9333 29.3185 53.3647 29.619 51.8425 30.0325C51.5916 31.8299 51.3625 33.7102 51.1574 35.6636C52.8497 35.4127 54.5838 35.2323 56.3518 35.1273C56.4076 33.0656 56.4701 31.0672 56.5389 29.1403ZM56.327 36.0643C54.5313 36.1733 52.7725 36.3613 51.0592 36.6227C50.8731 38.487 50.7086 40.415 50.5673 42.3984C52.4051 42.25 54.2831 42.1442 56.1939 42.0835C56.232 40.0268 56.2765 38.0182 56.327 36.0643ZM56.177 43.0184C54.2481 43.0804 52.3539 43.1888 50.5021 43.3406C50.3743 45.2501 50.2677 47.209 50.184 49.21C52.1182 49.137 54.0894 49.0852 56.0916 49.0558C56.114 47.0046 56.1426 44.9901 56.177 43.0184ZM56.0818 49.9899C54.0695 50.0197 52.0889 50.0721 50.1466 50.146C50.0728 52.088 50.0204 54.0683 49.9906 56.0804C51.9755 56.0606 53.9938 56.0466 56.0402 56.0387C56.0481 53.9926 56.0621 51.9746 56.0818 49.9899ZM56.037 56.9726C53.9874 56.9805 51.9661 56.9946 49.9785 57.0144C49.9674 58.0025 49.9618 58.9979 49.9618 60C49.9618 61.0021 49.9674 61.9975 49.9785 62.9856C51.9661 63.0054 53.9874 63.0194 56.037 63.0274C56.0341 62.0246 56.0326 61.0152 56.0326 60C56.0326 58.9848 56.0341 57.9754 56.037 56.9726ZM56.0402 63.9612C53.9938 63.9533 51.9755 63.9394 49.9906 63.9196C50.0203 65.9317 50.0728 67.912 50.1467 69.8541C52.089 69.9279 54.0695 69.9804 56.0818 70.0101C56.0621 68.0254 56.0481 66.0074 56.0402 63.9612ZM56.0916 70.9442C54.0894 70.9148 52.1182 70.863 50.184 70.79C50.2677 72.791 50.3743 74.7499 50.5021 76.6593C52.3539 76.8112 54.248 76.9196 56.177 76.9816C56.1426 75.0098 56.114 72.9955 56.0916 70.9442ZM56.1939 77.9164C54.2831 77.8558 52.4051 77.7499 50.5673 77.6016C50.7086 79.585 50.8731 81.513 51.0592 83.3773C52.7725 83.6387 54.5313 83.8267 56.327 83.9357C56.2765 81.9819 56.232 79.9732 56.1939 77.9164ZM56.3517 84.8727C54.5838 84.7678 52.8497 84.5873 51.1574 84.3364C51.3625 86.2898 51.5916 88.1701 51.8425 89.9675C53.3647 90.3809 54.9333 90.6815 56.5389 90.8596C56.4701 88.9328 56.4076 86.9344 56.3517 84.8727ZM56.5733 91.8028C55.0077 91.636 53.476 91.3562 51.9862 90.9718C52.2647 92.8695 52.568 94.6694 52.8938 96.3594C54.1645 96.9823 55.4782 97.4419 56.8247 97.7242C56.7341 95.8428 56.65 93.8656 56.5733 91.8028ZM56.8721 98.6872C55.5867 98.4378 54.3335 98.0366 53.1198 97.4967C53.484 99.2747 53.8733 100.917 54.2841 102.408C55.2321 103.314 56.208 103.994 57.2031 104.439C57.1538 103.69 57.1058 102.918 57.0591 102.124C56.9942 101.02 56.9318 99.8739 56.8721 98.6872ZM58.1626 104.792C58.7697 104.969 59.3828 105.058 59.9999 105.058C60.6181 105.058 61.2322 104.969 61.8404 104.792C61.8992 103.917 61.9563 103.009 62.0116 102.069C62.0726 101.031 62.1315 99.954 62.1879 98.8415C61.4673 98.9387 60.7373 98.9883 59.9991 98.9883C59.2626 98.9883 58.5341 98.9389 57.815 98.8421C57.8714 99.9544 57.9302 101.031 57.9913 102.069C58.0466 103.009 58.1037 103.917 58.1626 104.792ZM57.2734 105.479C56.4094 105.149 55.5714 104.667 54.7635 104.049C55.2613 105.653 55.7865 107.045 56.3334 108.202C56.7751 109.136 57.225 109.903 57.6773 110.502C57.5354 108.988 57.4005 107.308 57.2734 105.479ZM70.4911 95.4036C69.4359 97.5925 68.2852 99.4564 67.0633 100.946C67.3513 99.7791 67.6263 98.5401 67.8873 97.2353C67.8975 97.1845 67.9076 97.1335 67.9177 97.0824C67.9241 97.0502 67.9305 97.018 67.9369 96.9857C68.8117 96.5297 69.6641 96.0006 70.4911 95.4036ZM71.3214 93.5678C70.3086 94.4264 69.254 95.1724 68.1644 95.7965C68.4628 94.1877 68.7413 92.4863 68.998 90.7018C70.3447 90.3079 71.6546 89.8277 72.9213 89.2677C72.6105 90.2215 72.2849 91.1409 71.9454 92.0236C71.7421 92.5521 71.534 93.067 71.3214 93.5678ZM73.2992 88.0671C71.9628 88.7014 70.5739 89.2431 69.1408 89.6838C69.3814 87.9249 69.6012 86.0898 69.7984 84.1873C71.4415 83.9154 73.043 83.5768 74.5951 83.176C74.2037 84.883 73.7704 86.5166 73.2992 88.0671ZM74.8233 82.1503C73.2335 82.5765 71.5881 82.9363 69.8958 83.2241C70.0773 81.3812 70.2378 79.4779 70.3759 77.522C72.226 77.3568 74.0336 77.1485 75.7911 76.8997C75.511 78.7114 75.1872 80.4646 74.8233 82.1503ZM75.9352 75.9358C74.1548 76.1929 72.3205 76.4082 70.4405 76.5785C70.5663 74.6819 70.6711 72.7377 70.7535 70.7528C72.7381 70.6704 74.6819 70.5656 76.5782 70.4398C76.4078 72.3203 76.1924 74.155 75.9352 75.9358ZM76.6595 69.4985C74.7501 69.6264 72.7915 69.7329 70.7906 69.8166C70.8636 67.8827 70.9154 65.9117 70.9448 63.9098C72.9958 63.8874 75.01 63.8588 76.9816 63.8244C76.9196 65.7531 76.8113 67.647 76.6595 69.4985ZM77.0079 62.8899C75.032 62.9245 73.0131 62.9533 70.9569 62.9758C70.9679 61.9908 70.9734 60.9986 70.9734 60C70.9734 59.0014 70.9679 58.0092 70.9569 57.0242C73.0131 57.0467 75.032 57.0754 77.0079 57.11C77.031 58.0655 77.0427 59.0291 77.0427 60C77.0427 60.9709 77.031 61.9345 77.0079 62.8899ZM76.9816 56.1756C75.01 56.1411 72.9958 56.1125 70.9448 56.0901C70.9154 54.0883 70.8636 52.1173 70.7906 50.1834C72.7915 50.2672 74.7501 50.3737 76.6595 50.5016C76.8113 52.353 76.9196 54.2469 76.9816 56.1756ZM76.5782 49.5602C74.6819 49.4344 72.7381 49.3296 70.7535 49.2472C70.6711 47.2623 70.5663 45.3181 70.4405 43.4214C72.3205 43.5918 74.1548 43.8071 75.9352 44.0642C76.1924 45.845 76.4078 47.6797 76.5782 49.5602ZM75.7911 43.1002C74.0336 42.8515 72.226 42.6431 70.3759 42.478C70.2378 40.5221 70.0773 38.6188 69.8958 36.776C71.5881 37.0638 73.2335 37.4236 74.8233 37.8497C75.1872 39.5354 75.5109 41.2885 75.7911 43.1002ZM74.5951 36.824C73.043 36.4232 71.4415 36.0846 69.7984 35.8128C69.6012 33.9102 69.3814 32.0751 69.1408 30.3162C70.5739 30.7569 71.9627 31.2985 73.2991 31.9328C73.7704 33.4834 74.2037 35.117 74.5951 36.824ZM72.9213 30.7322C71.6545 30.1723 70.3447 29.6921 68.9979 29.2981C68.7413 27.5137 68.4628 25.8123 68.1644 24.2036C69.254 24.8276 70.3086 25.5736 71.3214 26.4322C71.534 26.9331 71.7421 27.4479 71.9454 27.9764C72.2849 28.8591 72.6105 29.7785 72.9213 30.7322ZM70.4911 24.5964C69.6641 23.9994 68.8117 23.4704 67.9369 23.0143C67.9204 22.9308 67.9039 22.8476 67.8873 22.7647C67.6263 21.4599 67.3513 20.2209 67.0633 19.054C68.2852 20.5436 69.4359 22.4075 70.4911 24.5964ZM52.086 22.9053C52.079 22.941 52.0719 22.9767 52.0648 23.0125C51.1896 23.4686 50.3369 23.9977 49.5095 24.5947C50.5651 22.4052 51.7162 20.541 52.9387 19.0514C52.6504 20.2191 52.3752 21.4589 52.1141 22.7647C52.1047 22.8115 52.0954 22.8584 52.086 22.9053ZM48.6793 26.4302C49.6924 25.5715 50.7473 24.8256 51.8373 24.2016C51.5387 25.8111 51.2601 27.5133 51.0033 29.2987C49.6559 29.693 48.3453 30.1735 47.078 30.734C47.3889 29.7797 47.7148 28.8596 48.0545 27.9764C48.258 27.4472 48.4663 26.9317 48.6793 26.4302ZM46.7001 31.9347C48.0371 31.2999 49.4267 30.7578 50.8605 30.3168C50.6199 32.0757 50.4001 33.9108 50.2029 35.8133C48.5591 36.0854 46.9571 36.4243 45.4044 36.8254C45.7958 35.1186 46.2289 33.4851 46.7001 31.9347ZM45.1762 37.8511C46.7666 37.4247 48.4125 37.0646 50.1055 36.7765C49.924 38.6193 49.7635 40.5226 49.6254 42.4784C47.7747 42.6437 45.9666 42.8522 44.2086 43.1012C44.4887 41.2896 44.8124 39.5367 45.1762 37.8511ZM44.0645 44.0651C45.8454 43.8078 47.6802 43.5924 49.5608 43.4219C49.435 45.3184 49.3302 47.2624 49.2478 49.2471C47.2628 49.3295 45.3184 49.4343 43.4216 49.5601C43.592 47.68 43.8074 45.8456 44.0645 44.0651ZM43.3403 50.5015C45.2502 50.3736 47.2093 50.267 49.2107 50.1833C49.1377 52.1172 49.0859 54.0882 49.0565 56.0901C47.005 56.1125 44.9903 56.1411 43.0182 56.1756C43.0802 54.2469 43.1885 52.353 43.3403 50.5015ZM42.9919 57.11C44.9683 57.0754 46.9877 57.0467 49.0445 57.0242C49.0335 58.0092 49.0279 59.0014 49.0279 60C49.0279 60.9986 49.0335 61.9908 49.0444 62.9758C46.9877 62.9533 44.9683 62.9246 42.9919 62.8899C42.9688 61.9345 42.9571 60.9709 42.9571 60C42.9571 59.0291 42.9688 58.0655 42.9919 57.11ZM43.0182 63.8244C44.9903 63.8588 47.005 63.8874 49.0565 63.9098C49.0859 65.9118 49.1377 67.8828 49.2107 69.8167C47.2093 69.733 45.2502 69.6265 43.3403 69.4986C43.1885 67.647 43.0802 65.7531 43.0182 63.8244ZM43.4216 70.4399C45.3184 70.5657 47.2628 70.6705 49.2478 70.7529C49.3302 72.7376 49.435 74.6816 49.5608 76.5781C47.6802 76.4076 45.8454 76.1921 44.0645 75.9348C43.8073 74.1543 43.592 72.32 43.4216 70.4399ZM44.2086 76.8988C45.9666 77.1477 47.7747 77.3563 49.6254 77.5215C49.7634 79.4774 49.924 81.3807 50.1055 83.2235C48.4125 82.9354 46.7666 82.5754 45.1762 82.1489C44.8123 80.4633 44.4887 78.7103 44.2086 76.8988ZM45.4044 83.1746C46.9571 83.5757 48.5591 83.9147 50.2029 84.1867C50.4001 86.0892 50.6199 87.9243 50.8605 89.6832C49.4267 89.2421 48.0371 88.7 46.7001 88.0652C46.2289 86.5148 45.7958 84.8814 45.4044 83.1746ZM47.0779 89.2659C48.3453 89.8264 49.6559 90.307 51.0033 90.7012C51.2601 92.4866 51.5387 94.1889 51.8373 95.7984C50.7473 95.1745 49.6924 94.4285 48.6793 93.5698C48.4663 93.0684 48.258 92.5528 48.0545 92.0236C47.7147 91.1404 47.3889 90.2203 47.0779 89.2659ZM49.5095 95.4053C50.3369 96.0023 51.1896 96.5314 52.0648 96.9875C52.0812 97.0704 52.0976 97.153 52.1141 97.2353C52.3752 98.5411 52.6504 99.7809 52.9387 100.949C51.7162 99.459 50.5651 97.5948 49.5095 95.4053ZM72.9227 27.9185C73.3264 28.9859 73.71 30.104 74.072 31.2686C75.0009 31.7244 75.9044 32.2239 76.78 32.7644C75.6013 30.9459 74.3089 29.3214 72.9227 27.9185ZM74.443 32.505C74.8677 33.9708 75.2591 35.5044 75.6145 37.0982C77.0656 37.5041 78.4708 37.9649 79.8237 38.4767C79.238 37.1299 78.5989 35.8458 77.9116 34.6321C76.8066 33.8505 75.6482 33.1393 74.443 32.505ZM75.8384 38.133C76.1836 39.778 76.4909 41.4836 76.7575 43.2418C78.5153 43.5083 80.2205 43.8154 81.8651 44.1604C81.4137 42.6053 80.898 41.1069 80.3235 39.6735C78.8907 39.0994 77.3928 38.5841 75.8384 38.133ZM76.8991 44.2082C77.148 45.9661 77.3565 47.7742 77.5217 49.6248C79.4773 49.7629 81.3803 49.9234 83.2229 50.1049C82.9349 48.4119 82.5749 46.7659 82.1485 45.1755C80.4631 44.8118 78.7104 44.4882 76.8991 44.2082ZM77.6017 50.5667C77.75 52.4043 77.8558 54.2819 77.9164 56.1924C79.9729 56.2305 81.9813 56.275 83.9349 56.3255C83.826 54.5301 83.638 52.7716 83.3767 51.0586C81.5126 50.8725 79.5849 50.708 77.6017 50.5667ZM77.9424 57.1269C77.9651 58.0771 77.9766 59.0351 77.9766 60C77.9766 60.9649 77.9651 61.9228 77.9424 62.8731C80.0074 62.8347 82.0237 62.7899 83.9844 62.739C84.0251 61.8345 84.0458 60.9212 84.0458 60C84.0458 59.0788 84.0251 58.1655 83.9844 57.2609C82.0237 57.2101 80.0074 57.1653 77.9424 57.1269ZM77.9164 63.8076C77.8558 65.7181 77.75 67.5958 77.6017 69.4334C79.5849 69.292 81.5126 69.1275 83.3767 68.9415C83.638 67.2285 83.826 65.4699 83.9349 63.6745C81.9813 63.725 79.9729 63.7695 77.9164 63.8076ZM77.5217 70.3752C77.3565 72.2258 77.148 74.0338 76.8991 75.7917C78.7104 75.5117 80.4631 75.1882 82.1485 74.8245C82.5749 73.2341 82.9349 71.5881 83.2229 69.8951C81.3803 70.0766 79.4773 70.2372 77.5217 70.3752ZM76.7575 76.7581C76.4909 78.5164 76.1836 80.222 75.8384 81.867C77.3928 81.4159 78.8907 80.9006 80.3235 80.3266C80.898 78.8931 81.4137 77.3946 81.8652 75.8395C80.2205 76.1845 78.5153 76.4917 76.7575 76.7581ZM75.6145 82.9019C75.2591 84.4956 74.8677 86.0292 74.443 87.495C75.6482 86.8606 76.8066 86.1494 77.9117 85.3678C78.599 84.1541 79.238 82.8701 79.8237 81.5233C78.4708 82.0351 77.0656 82.496 75.6145 82.9019ZM74.072 88.7313C73.71 89.896 73.3264 91.0141 72.9227 92.0816C74.3089 90.6786 75.6014 89.0541 76.7801 87.2355C75.9045 87.776 75.0009 88.2755 74.072 88.7313ZM47.078 92.0841C46.6738 91.0152 46.2897 89.8956 45.9272 88.7293C44.9968 88.2726 44.0918 87.7721 43.2149 87.2304C44.3952 89.0521 45.6896 90.6793 47.078 92.0841ZM45.5562 87.4928C45.1316 86.0272 44.7403 84.4939 44.385 82.9004C42.933 82.4941 41.5269 82.0327 40.1733 81.5204C40.7585 82.8661 41.3968 84.1491 42.0833 85.3619C43.1896 86.145 44.3494 86.8575 45.5562 87.4928ZM44.1611 81.8655C43.816 80.2206 43.5087 78.5152 43.2422 76.7571C41.4837 76.4905 39.7779 76.183 38.1326 75.8377C38.5838 77.3924 39.0993 78.8904 39.6735 80.3235C41.1071 80.8981 42.6058 81.414 44.1611 81.8655ZM43.1005 75.7907C42.8517 74.0332 42.6433 72.2255 42.4782 70.3753C40.522 70.2373 38.6185 70.0767 36.7754 69.8951C37.0632 71.5875 37.4231 73.2328 37.8493 74.8226C39.5352 75.1866 41.2886 75.5105 43.1005 75.7907ZM42.3981 69.4335C42.2498 67.5958 42.144 65.7181 42.0834 63.8076C40.0264 63.7695 38.0175 63.7249 36.0634 63.6744C36.1723 65.4699 36.3603 67.2284 36.6216 68.9415C38.4862 69.1275 40.4144 69.2921 42.3981 69.4335ZM42.0574 62.8731C42.0348 61.9228 42.0233 60.9649 42.0233 60C42.0233 59.0351 42.0348 58.0772 42.0574 57.1269C39.9919 57.1653 37.9751 57.2101 36.0139 57.261C35.9732 58.1655 35.9524 59.0789 35.9524 60C35.9524 60.9211 35.9732 61.8345 36.0139 62.739C37.9751 62.7899 39.9919 62.8347 42.0574 62.8731ZM42.0834 56.1924C42.144 54.2819 42.2498 52.4042 42.3981 50.5666C40.4144 50.7079 38.4862 50.8725 36.6216 51.0586C36.3603 52.7716 36.1723 54.5301 36.0634 56.3255C38.0175 56.275 40.0264 56.2305 42.0834 56.1924ZM42.4782 49.6247C42.6433 47.7745 42.8517 45.9668 43.1005 44.2093C41.2886 44.4895 39.5352 44.8133 37.8493 45.1773C37.4231 46.7672 37.0632 48.4126 36.7754 50.1049C38.6184 49.9234 40.522 49.7628 42.4782 49.6247ZM43.2422 43.2428C43.5087 41.4848 43.816 39.7794 44.1611 38.1345C42.6058 38.5861 41.1071 39.1019 39.6735 39.6766C39.0993 41.1096 38.5839 42.6076 38.1326 44.1622C39.7779 43.8169 41.4837 43.5095 43.2422 43.2428ZM44.385 37.0997C44.7403 35.5061 45.1316 33.9728 45.5562 32.5071C44.3495 33.1425 43.1897 33.8549 42.0833 34.638C41.3968 35.8509 40.7585 37.1339 40.1733 38.4796C41.5269 37.9673 42.933 37.506 44.385 37.0997ZM45.9272 31.2706C46.2897 30.1044 46.6738 28.9848 47.078 27.916C45.6897 29.3207 44.3953 30.9478 43.215 32.7695C44.0919 32.2278 44.9968 31.7273 45.9272 31.2706ZM79.6931 35.9908C80.1708 36.9448 80.6205 37.9344 81.0404 38.9565C82.0628 39.3764 83.0526 39.8261 84.0069 40.3037C82.7134 38.7291 81.268 37.284 79.6931 35.9908ZM82.9 44.3843C82.4938 42.9325 82.0326 41.5266 81.5204 40.1731C82.8676 40.7589 84.152 41.3978 85.3661 42.0851C86.1485 43.1909 86.8604 44.35 87.4953 45.556C86.0288 45.1312 84.4945 44.7397 82.9 44.3843ZM84.1861 50.2022C83.9141 48.5584 83.5752 46.9564 83.1742 45.4037C84.882 45.7952 86.5163 46.2285 88.0676 46.6999C88.7023 48.0369 89.2443 49.4264 89.6852 50.8602C87.9255 50.6195 86.0896 50.3996 84.1861 50.2022ZM84.8719 56.3503C84.767 54.5826 84.5866 52.8488 84.3358 51.1568C86.2901 51.362 88.1713 51.5912 89.9695 51.8422C90.3828 53.3641 90.6832 54.9323 90.8613 56.5375C88.9337 56.4687 86.9345 56.4061 84.8719 56.3503ZM84.9202 62.7142C84.9597 61.8173 84.9797 60.9123 84.9797 60C84.9797 59.0877 84.9597 58.1826 84.9202 57.2858C86.9981 57.3422 89.0112 57.4055 90.951 57.4752C91.0181 58.3079 91.0522 59.15 91.0522 60C91.0522 60.85 91.0181 61.692 90.951 62.5248C89.0112 62.5945 86.9981 62.6577 84.9202 62.7142ZM84.3358 68.8433C84.5866 67.1513 84.767 65.4174 84.8719 63.6497C86.9345 63.5939 88.9337 63.5313 90.8613 63.4625C90.6832 65.0677 90.3828 66.636 89.9695 68.1578C88.1713 68.4089 86.2901 68.638 84.3358 68.8433ZM83.1742 74.5963C83.5752 73.0436 83.9141 71.4416 84.1861 69.7978C86.0895 69.6005 87.9255 69.3806 89.6852 69.1398C89.2442 70.5736 88.7023 71.9631 88.0676 73.3C86.5163 73.7714 84.882 74.2048 83.1742 74.5963ZM81.5203 79.8269C82.0326 78.4734 82.4938 77.0675 82.9 75.6157C84.4945 75.2603 86.0288 74.8687 87.4953 74.4439C86.8604 75.65 86.1484 76.8092 85.366 77.9149C84.1519 78.6022 82.8675 79.2412 81.5203 79.8269ZM79.6931 84.0091C80.1708 83.0551 80.6205 82.0656 81.0404 81.0435C82.0627 80.6237 83.0525 80.174 84.0068 79.6964C82.7133 81.271 81.268 82.716 79.6931 84.0091ZM40.3017 84.0022C39.8248 83.0494 39.3758 82.0611 38.9566 81.0403C37.9361 80.621 36.948 80.172 35.9954 79.6951C37.2868 81.2673 38.7297 82.7105 40.3017 84.0022ZM38.4767 79.8235C37.9647 78.4705 37.5038 77.0651 37.0978 75.6138C35.505 75.2586 33.9724 74.8673 32.5074 74.4429C33.1422 75.6488 33.854 76.8078 34.6362 77.9135C35.8487 78.6 37.1314 79.2383 38.4767 79.8235ZM36.8236 74.5943C36.4228 73.0423 36.0841 71.4409 35.8122 69.7978C33.9106 69.6007 32.0764 69.381 30.3183 69.1405C30.759 70.5736 31.3008 71.9625 31.9351 73.299C33.4849 73.77 35.1176 74.203 36.8236 74.5943ZM35.6625 68.8432C35.4116 67.1512 35.2313 65.4173 35.1264 63.6497C33.0655 63.5939 31.068 63.5314 29.1419 63.4626C29.3201 65.068 29.6206 66.6365 30.034 68.1585C31.8306 68.4093 33.71 68.6382 35.6625 68.8432ZM35.0781 62.7141C35.0386 61.8173 35.0186 60.9123 35.0186 60C35.0186 59.0877 35.0386 58.1827 35.0781 57.2858C33.0019 57.3422 30.9905 57.4055 29.0522 57.475C28.9852 58.3078 28.951 59.1499 28.951 60C28.951 60.85 28.9852 61.6921 29.0522 62.5249C30.9905 62.5945 33.0019 62.6577 35.0781 62.7141ZM35.1264 56.3503C35.2313 54.5827 35.4116 52.8488 35.6625 51.1568C33.71 51.3618 31.8306 51.5907 30.0339 51.8415C29.6206 53.3635 29.3201 54.932 29.1419 56.5374C31.068 56.4686 33.0655 56.4061 35.1264 56.3503ZM35.8122 50.2023C36.084 48.5591 36.4228 46.9577 36.8236 45.4056C35.1176 45.7969 33.4849 46.23 31.9351 46.701C31.3008 48.0374 30.759 49.4264 30.3182 50.8595C32.0763 50.6191 33.9106 50.3994 35.8122 50.2023ZM37.0978 44.3862C37.5038 42.9349 37.9647 41.5295 38.4767 40.1765C37.1313 40.7617 35.8487 41.4001 34.6362 42.0866C33.8539 43.1922 33.1422 44.3512 32.5074 45.5571C33.9724 45.1326 35.505 44.7414 37.0978 44.3862ZM38.9565 38.9597C39.3758 37.9389 39.8249 36.9506 40.3017 35.9977C38.7297 37.2895 37.2868 38.7327 35.9953 40.305C36.948 39.8281 37.936 39.379 38.9565 38.9597ZM5.20965 59.0993C5.8359 59.0122 6.52123 58.9269 7.26278 58.8435C7.09443 59.2134 7.00313 59.5993 7.00313 60C7.00313 60.4007 7.09442 60.7865 7.26275 61.1565C6.52121 61.0731 5.83589 60.9877 5.20965 60.9006C3.70942 60.692 2.56604 60.4757 1.80543 60.257C1.48587 60.1651 1.25263 60.078 1.09466 60C1.25263 59.9219 1.48587 59.8348 1.80543 59.743C2.56604 59.5243 3.70942 59.308 5.20965 59.0993ZM7.93698 60C7.93698 60.4059 8.08612 60.833 8.41892 61.2803C10.1156 61.4537 12.0605 61.6179 14.226 61.7711C14.0842 61.1909 14.0109 60.6001 14.0109 60C14.0109 59.3998 14.0842 58.809 14.226 58.2288C12.0605 58.3821 10.1157 58.5463 8.41898 58.7196C8.08614 59.167 7.93698 59.5942 7.93698 60ZM11.7977 63.6673C10.8642 63.2259 10.0967 62.7762 9.49812 62.3242C11.0131 62.4662 12.6943 62.6011 14.5252 62.7283C14.8548 63.5926 15.3372 64.4309 15.956 65.239C14.3494 64.7406 12.9557 64.2148 11.7977 63.6673ZM17.5974 65.7184C16.6909 64.7701 16.0099 63.7939 15.565 62.7985C16.3128 62.8478 17.0836 62.8957 17.8763 62.9424C18.9806 63.0073 20.128 63.0697 21.3156 63.1294C21.5653 64.4149 21.9666 65.6681 22.5067 66.8818C20.7296 66.5178 19.0884 66.1288 17.5974 65.7184ZM23.6441 67.1078C23.021 65.837 22.5612 64.5233 22.2787 63.1769C24.1597 63.2675 26.1365 63.3515 28.1988 63.4282C28.3656 64.9936 28.6453 66.5252 29.0297 68.0148C27.1327 67.7365 25.3335 67.4333 23.6441 67.1078ZM22.1108 62.2338C24.0152 62.3264 26.0195 62.4122 28.1127 62.4905C28.0494 61.6686 28.0172 60.8381 28.0172 60C28.0172 59.1619 28.0494 58.3313 28.1127 57.5095C26.0195 57.5878 24.0152 57.6736 22.1108 57.7662C22.0029 58.5024 21.9479 59.2476 21.9479 60C21.9479 60.7524 22.0029 61.4976 22.1108 62.2338ZM90.9738 68.014C91.3581 66.5247 91.6377 64.9932 91.8045 63.4281C93.8674 63.3513 95.8447 63.2673 97.7261 63.1766C97.4437 64.5227 96.9841 65.836 96.3613 67.1064C94.6714 67.4322 92.8715 67.7356 90.9738 68.014ZM91.8905 62.4904C93.9844 62.412 95.9892 62.3262 97.894 62.2335C98.0018 61.4974 98.0569 60.7524 98.0569 60C98.0569 59.2477 98.0018 58.5026 97.894 57.7664C95.9892 57.6738 93.9844 57.5879 91.8905 57.5096C91.9538 58.3314 91.9861 59.1619 91.9861 60C91.9861 60.838 91.9538 61.6686 91.8905 62.4904ZM97.4987 66.8804C98.0385 65.667 98.4396 64.4142 98.6892 63.1292C99.8751 63.0696 101.021 63.0072 102.124 62.9424C102.919 62.8956 103.692 62.8475 104.441 62.7981C103.997 63.7926 103.317 64.768 102.412 65.7154C100.92 66.1264 99.2773 66.5159 97.4987 66.8804ZM102.069 62.0101C103.01 61.9548 103.919 61.8976 104.795 61.8387C104.972 61.2311 105.062 60.6176 105.062 60C105.062 59.3824 104.972 58.7689 104.795 58.1613C103.919 58.1024 103.01 58.0452 102.069 57.9899C101.031 57.9288 99.9557 57.8701 98.8442 57.8136C98.9411 58.5335 98.9907 59.2627 98.9907 60C98.9907 60.7373 98.9411 61.4665 98.8442 62.1863C99.9558 62.1299 101.031 62.0711 102.069 62.0101ZM104.053 65.2358C104.671 64.4286 105.152 63.5912 105.481 62.7278C107.309 62.6009 108.987 62.4661 110.5 62.3244C109.902 62.7763 109.134 63.2259 108.201 63.6673C107.045 64.2137 105.655 64.7384 104.053 65.2358ZM105.78 61.7707C107.943 61.6176 109.885 61.4536 111.579 61.2805C111.912 60.8331 112.061 60.4059 112.061 60C112.061 59.5941 111.912 59.1669 111.579 58.7195C109.885 58.5464 107.943 58.3824 105.78 58.2293C105.922 58.8094 105.995 59.4 105.995 60C105.995 60.6 105.922 61.1906 105.78 61.7707ZM114.79 60.9006C114.164 60.9878 113.478 61.0732 112.736 61.1567C112.904 60.7867 112.995 60.4008 112.995 60C112.995 59.5992 112.904 59.2133 112.736 58.8433C113.478 58.9268 114.164 59.0122 114.79 59.0993C116.291 59.308 117.434 59.5243 118.195 59.743C118.514 59.8348 118.747 59.9219 118.905 60C118.747 60.078 118.514 60.1651 118.195 60.257C117.434 60.4757 116.291 60.692 114.79 60.9006ZM108.201 56.3328C109.134 56.7741 109.902 57.2237 110.5 57.6756C108.987 57.5339 107.309 57.3991 105.481 57.2722C105.152 56.4088 104.671 55.5715 104.053 54.7642C105.655 55.2617 107.045 55.7864 108.201 56.3328ZM102.412 54.2846C103.317 55.2321 103.997 56.2074 104.442 57.2019C103.692 57.1525 102.919 57.1044 102.124 57.0576C101.021 56.9927 99.8751 56.9304 98.6892 56.8708C98.4396 55.5858 98.0385 54.333 97.4987 53.1197C99.2774 53.4841 100.92 53.8737 102.412 54.2846ZM96.3613 52.8936C96.9841 54.164 97.4437 55.4773 97.7261 56.8234C95.8447 56.7327 93.8674 56.6487 91.8045 56.5719C91.6377 55.0068 91.3581 53.4754 90.9738 51.986C92.8715 52.2645 94.6714 52.5678 96.3613 52.8936ZM29.0296 51.9853C28.6453 53.4748 28.3656 55.0064 28.1988 56.5718C26.1365 56.6485 24.1597 56.7325 22.2787 56.8231C22.5612 55.4767 23.021 54.163 23.6441 52.8923C25.3335 52.5667 27.1327 52.2636 29.0296 51.9853ZM22.5067 53.1183C21.9666 54.332 21.5653 55.5851 21.3156 56.8705C20.128 56.9302 18.9806 56.9927 17.8763 57.0576C17.0836 57.1043 16.3128 57.1522 15.565 57.2014C16.0099 56.2061 16.6909 55.2299 17.5973 54.2817C19.0883 53.8713 20.7296 53.4823 22.5067 53.1183ZM14.9448 60C14.9448 59.3822 15.0344 58.7686 15.2113 58.1609C16.0852 58.1021 16.9924 58.0451 17.9312 57.9899C18.9701 57.9287 20.0474 57.8699 21.1606 57.8134C21.0636 58.5333 21.0141 59.2626 21.0141 60C21.0141 60.7374 21.0636 61.4667 21.1606 62.1866C20.0473 62.1301 18.9701 62.0712 17.9312 62.0101C16.9924 61.9549 16.0852 61.8979 15.2113 61.8391C15.0344 61.2314 14.9448 60.6177 14.9448 60ZM15.9559 54.761C15.3371 55.5691 14.8548 56.4074 14.5252 57.2717C12.6944 57.3988 11.0132 57.5338 9.49822 57.6758C10.0967 57.2238 10.8642 56.7742 11.7977 56.3328C12.9556 55.7852 14.3494 55.2594 15.9559 54.761ZM100.952 52.9391C99.4621 51.7162 97.597 50.5646 95.4064 49.5086C96.0038 50.3362 96.5331 51.1892 96.9894 52.0647C97.0714 52.0809 97.1531 52.0971 97.2346 52.1134C98.542 52.3749 99.7833 52.6505 100.952 52.9391ZM95.8002 51.8371C95.176 50.7469 94.4297 49.6917 93.5707 48.6784C93.07 48.4658 92.5552 48.2578 92.0268 48.0545C91.1432 47.7147 90.2229 47.3888 89.2682 47.0777C89.8286 48.3451 90.3091 49.6556 90.7033 51.0031C92.4886 51.2599 94.1908 51.5385 95.8002 51.8371ZM29.3002 51.0023C29.6942 49.6556 30.1744 48.3457 30.7345 47.0789C29.7811 47.3896 28.862 47.7151 27.9795 48.0545C27.4503 48.2581 26.9347 48.4665 26.4332 48.6794C25.5749 49.692 24.8292 50.7464 24.2053 51.8358C25.8141 51.5374 27.5156 51.259 29.3002 51.0023ZM23.0161 52.0633C23.472 51.1887 24.0009 50.3366 24.5976 49.5097C22.4097 50.5646 20.5465 51.7149 19.0574 52.9363C20.2232 52.6487 21.4607 52.3741 22.7639 52.1134L22.8528 52.0957L23.0161 52.0633ZM19.0576 67.0637C20.5466 68.2852 22.4097 69.4353 24.5975 70.4902C24.0008 69.6634 23.472 68.8113 23.0161 67.9367L22.9035 67.9144L22.7639 67.8866C21.4608 67.626 20.2233 67.3514 19.0576 67.0637ZM24.2053 68.1642C24.8291 69.2536 25.5748 70.3079 26.4331 71.3205C26.9346 71.5335 27.4503 71.7419 27.9795 71.9454C28.862 72.2848 29.7811 72.6104 30.7345 72.9211C30.1745 71.6543 29.6942 70.3444 29.3002 68.9977C27.5157 68.7411 25.8141 68.4626 24.2053 68.1642ZM90.7033 68.997C90.3091 70.3444 89.8286 71.6549 89.2682 72.9222C90.2229 72.6112 91.1432 72.2852 92.0268 71.9454C92.5552 71.7422 93.07 71.5341 93.5708 71.3215C94.4298 70.3082 95.176 69.2531 95.8002 68.1629C94.1908 68.4615 92.4886 68.7402 90.7033 68.997ZM96.9893 67.9353C96.5331 68.8108 96.0038 69.6637 95.4064 70.4913C97.5969 69.4354 99.462 68.2839 100.952 67.061C99.7832 67.3496 98.5419 67.6252 97.2346 67.8866C97.1531 67.9029 97.0714 67.9192 96.9893 67.9353ZM31.271 45.9282C30.1058 46.2903 28.9871 46.6742 27.9192 47.0781C29.3228 45.691 30.9483 44.3977 32.7681 43.2183C32.2271 44.0944 31.7271 44.9986 31.271 45.9282ZM92.0847 47.0772C91.0164 46.6732 89.8973 46.2893 88.7317 45.9271C88.2754 44.9973 87.7753 44.093 87.2342 43.2167C89.0546 44.3962 90.6806 45.6898 92.0847 47.0772ZM32.7682 76.7817C30.9483 75.6023 29.3227 74.309 27.919 72.9218C28.987 73.3258 30.1057 73.7096 31.271 74.0718C31.7272 75.0014 32.2271 75.9056 32.7682 76.7817ZM87.2341 76.7834C87.7753 75.9071 88.2754 75.0027 88.7317 74.0729C89.8974 73.7107 91.0164 73.3268 92.0848 72.9228C90.6807 74.3102 89.0546 75.6038 87.2341 76.7834Z" fill="white"/>
<path d="M173.718 90C169.271 90 165.283 89.2593 161.753 87.7778C158.224 86.2257 155.435 84.1093 153.388 81.4286C151.341 78.6772 150.212 75.5379 150 72.0106H159.953C160.235 74.903 161.577 77.2663 163.977 79.1005C166.447 80.9347 169.659 81.8519 173.612 81.8519C177.283 81.8519 180.177 81.0406 182.294 79.418C184.412 77.7954 185.471 75.7495 185.471 73.2804C185.471 70.7407 184.342 68.8712 182.083 67.672C179.824 66.4021 176.33 65.1675 171.6 63.9683C167.294 62.8395 163.765 61.7108 161.012 60.582C158.329 59.3827 156 57.6543 154.024 55.3968C152.118 53.0688 151.165 50.0353 151.165 46.2963C151.165 43.3333 152.047 40.6173 153.812 38.1481C155.577 35.679 158.082 33.739 161.33 32.328C164.577 30.8466 168.283 30.1058 172.447 30.1058C178.871 30.1058 184.059 31.7284 188.012 34.9735C191.965 38.2187 194.083 42.6631 194.365 48.3069H184.73C184.518 45.2734 183.283 42.8395 181.024 41.0053C178.836 39.1711 175.871 38.254 172.13 38.254C168.671 38.254 165.918 38.9947 163.871 40.4762C161.824 41.9577 160.8 43.8977 160.8 46.2963C160.8 48.2011 161.4 49.7884 162.6 51.0582C163.871 52.2575 165.424 53.2451 167.259 54.0212C169.165 54.7266 171.777 55.5379 175.094 56.455C179.259 57.5838 182.647 58.7125 185.259 59.8413C187.871 60.8995 190.095 62.522 191.93 64.709C193.836 66.8959 194.824 69.7531 194.895 73.2804C194.895 76.455 194.012 79.3122 192.248 81.8519C190.483 84.3915 187.977 86.4021 184.73 87.8836C181.553 89.2945 177.883 90 173.718 90Z" fill="white"/>
<path d="M234.763 90C229.328 90 224.386 88.7654 219.939 86.2963C215.563 83.8272 212.104 80.3351 209.563 75.8201C207.092 71.2346 205.857 65.9436 205.857 59.9471C205.857 54.0212 207.127 48.8007 209.669 44.2857C212.28 39.7002 215.81 36.2081 220.257 33.8095C224.704 31.3404 229.681 30.1058 235.187 30.1058C240.692 30.1058 245.669 31.3404 250.116 33.8095C254.563 36.2081 258.057 39.6649 260.599 44.1799C263.21 48.6949 264.516 53.9506 264.516 59.9471C264.516 65.9436 263.175 71.2346 260.493 75.8201C257.881 80.3351 254.316 83.8272 249.798 86.2963C245.281 88.7654 240.269 90 234.763 90ZM234.763 81.5344C238.222 81.5344 241.469 80.7231 244.504 79.1005C247.54 77.478 249.975 75.0441 251.81 71.7989C253.716 68.5538 254.669 64.6032 254.669 59.9471C254.669 55.291 253.751 51.3404 251.916 48.0952C250.081 44.8501 247.681 42.4515 244.716 40.8995C241.751 39.2769 238.54 38.4656 235.081 38.4656C231.551 38.4656 228.304 39.2769 225.339 40.8995C222.445 42.4515 220.116 44.8501 218.351 48.0952C216.586 51.3404 215.704 55.291 215.704 59.9471C215.704 64.6737 216.551 68.6596 218.245 71.9048C220.01 75.1499 222.339 77.5838 225.234 79.2064C228.128 80.7584 231.304 81.5344 234.763 81.5344Z" fill="white"/>
<path d="M346.002 30C350.52 30 354.543 30.9524 358.073 32.8571C361.602 34.6914 364.39 37.478 366.437 41.2169C368.484 44.9559 369.508 49.5062 369.508 54.8677V89.0476H359.979V56.2434C359.979 50.4586 358.531 46.0494 355.637 43.0159C352.814 39.9118 348.967 38.3598 344.096 38.3598C339.084 38.3598 335.096 39.9824 332.131 43.2275C329.166 46.4021 327.684 51.0229 327.684 57.0899V89.0476H318.155V56.2434C318.155 50.4586 316.707 46.0494 313.813 43.0159C310.99 39.9118 307.143 38.3598 302.272 38.3598C297.26 38.3598 293.272 39.9824 290.307 43.2275C287.342 46.4021 285.86 51.0229 285.86 57.0899V89.0476H276.225V31.0582H285.86V39.418C287.766 36.3845 290.307 34.0564 293.484 32.4339C296.731 30.8113 300.296 30 304.178 30C309.049 30 313.354 31.0935 317.096 33.2804C320.837 35.4674 323.625 38.6772 325.46 42.9101C327.084 38.8183 329.766 35.6437 333.508 33.3862C337.249 31.1287 341.414 30 346.002 30Z" fill="white"/>
<path d="M413.585 30C420.643 30 426.361 32.1517 430.738 36.455C435.114 40.6878 437.302 46.8254 437.302 54.8677V89.0476H427.773V56.2434C427.773 50.4586 426.326 46.0494 423.432 43.0159C420.537 39.9118 416.585 38.3598 411.573 38.3598C406.49 38.3598 402.431 39.9471 399.396 43.1217C396.431 46.2963 394.949 50.9171 394.949 56.9841V89.0476H385.314V31.0582H394.949V39.3122C396.855 36.3492 399.431 34.0564 402.678 32.4339C405.996 30.8113 409.632 30 413.585 30Z" fill="white"/>
<path d="M459.939 43.5097C458.104 43.5097 456.551 42.8748 455.28 41.6049C454.01 40.3351 453.374 38.7831 453.374 36.9488C453.374 35.1146 454.01 33.5626 455.28 32.2928C456.551 31.0229 458.104 30.388 459.939 30.388C461.704 30.388 463.186 31.0229 464.386 32.2928C465.657 33.5626 466.292 35.1146 466.292 36.9488C466.292 38.7831 465.657 40.3351 464.386 41.6049C463.186 42.8748 461.704 43.5097 459.939 43.5097ZM464.598 56.2434V89.0476H454.963V56.2434H464.598Z" fill="white"/>
<path d="M508.247 90C502.811 90 497.87 88.7654 493.423 86.2963C489.047 83.8272 485.588 80.3351 483.047 75.8201C480.576 71.2346 479.341 65.9436 479.341 59.9471C479.341 54.0212 480.611 48.8007 483.152 44.2857C485.764 39.7002 489.294 36.2081 493.741 33.8095C498.188 31.3404 503.164 30.1058 508.67 30.1058C514.176 30.1058 519.153 31.3404 523.6 33.8095C528.047 36.2081 531.541 39.6649 534.082 44.1799C536.694 48.6949 538 53.9506 538 59.9471C538 65.9436 536.659 71.2346 533.976 75.8201C531.365 80.3351 527.8 83.8272 523.282 86.2963C518.765 88.7654 513.753 90 508.247 90ZM508.247 81.5344C511.706 81.5344 514.953 80.7231 517.988 79.1005C521.023 77.478 523.459 75.0441 525.294 71.7989C527.2 68.5538 528.153 64.6032 528.153 59.9471C528.153 55.291 527.235 51.3404 525.4 48.0952C523.565 44.8501 521.165 42.4515 518.2 40.8995C515.235 39.2769 512.023 38.4656 508.564 38.4656C505.035 38.4656 501.788 39.2769 498.823 40.8995C495.929 42.4515 493.6 44.8501 491.835 48.0952C490.07 51.3404 489.188 55.291 489.188 59.9471C489.188 64.6737 490.035 68.6596 491.729 71.9048C493.494 75.1499 495.823 77.5838 498.717 79.2064C501.611 80.7584 504.788 81.5344 508.247 81.5344Z" fill="white"/>
</svg>
